# xmcd
#
# Track frame offsets:
#      150
#      17557
#      31962
#      51775
#      65642
#      81250
#      101055
#      127465
#      150520
#      171930
#      191382
# 
# Disc length: 2894 seconds
#
# Revision: 2
# Processed by: cddbd v1.4PL0 Copyright (c) Steve Scherf et al.
#
# Submitted via: FreeRIP 1.20
#
DISCID=920b4c0b
DTITLE=Market Mike and The Suits - Business Blues
DYEAR=1900
DGENRE=blues
TTITLE0=I Survived The Reorg (But I Wish They'd Laid Me Off)
TTITLE1=The Company Christmas Party
TTITLE2=Voice Mail Hell
TTITLE3=Corporate Speak
TTITLE4=High-tech Leash
TTITLE5=Business Travel
TTITLE6=Cubicle Blues
TTITLE7=Business Dining
TTITLE8=His Computer Crashed
TTITLE9=Meetngs
TTITLE10=Big Bucks Consulting
EXTD=
EXTT0=
EXTT1=
EXTT2=
EXTT3=
EXTT4=
EXTT5=
EXTT6=
EXTT7=
EXTT8=
EXTT9=
EXTT10=
PLAYORDER=
